{"asset":{"version":"2.0","generator":"Blockbench 4.11.2 glTF exporter"},"scenes":[{"nodes":[1],"name":"blockbench_export"}],"scene":0,"nodes":[{"translation":[0.15625,1.265625,-0.078125],"name":"mesh","mesh":0},{"children":[0]}],"bufferViews":[{"buffer":0,"byteOffset":0,"byteLength":54060,"target":34962,"byteStride":12},{"buffer":0,"byteOffset":54060,"byteLength":54060,"target":34962,"byteStride":12},{"buffer":0,"byteOffset":108120,"byteLength":36040,"target":34962,"byteStride":8},{"buffer":0,"byteOffset":144160,"byteLength":13268,"target":34963}],"buffers":[{"byteLength":157428,"uri":"data:application/octet-stream;base64,"}],"accessors":[{"bufferView":0,"componentType":5126,"count":4505,"max":[0.890625,1.1501976251602173,0.3923719525337219],"min":[-1.203125,-1.265625,-0.359375],"type":"VEC3"},{"bufferView":1,"componentType":5126,"count":4505,"max":[1,1,1],"min":[-1,-1,-1],"type":"VEC3"},{"bufferView":2,"componentType":5126,"count":4505,"max":[0.9177229404449463,0.6375707983970642],"min":[0.0011401943629607558,0.0005270371912047267],"type":"VEC2"},{"bufferView":3,"componentType":5123,"count":6633,"max":[4504],"min":[0],"type":"SCALAR"}],"materials":[{"pbrMetallicRoughness":{"metallicFactor":0,"roughnessFactor":1,"baseColorTexture":{"index":0}},"alphaMode":"MASK","alphaCutoff":0.05,"doubleSided":true}],"textures":[{"sampler":0,"source":0,"name":"stiched_texture"}],"samplers":[{"magFilter":9728,"minFilter":9728,"wrapS":33071,"wrapT":33071}],"images":[{"mimeType":"image/png","uri":"data:image/png;base64,"}],"meshes":[{"primitives":[{"mode":4,"attributes":{"POSITION":0,"NORMAL":1,"TEXCOORD_0":2},"indices":3,"material":0}]}]}